<svg version="1.1" id="Layer_1" xmlns="http://www.w3.org/2000/svg" xmlns:xlink="http://www.w3.org/1999/xlink" x="0px" y="0px" width="125px" height="125px" viewBox="0 0 96 96" enable-background="new 0 0 96 96" xml:space="preserve" fill="#2f2d3e">
	<path fill-rule="evenodd" clip-rule="evenodd" d="M48.001,2.964C23.128,2.964,2.964,23.127,2.964,48c0,24.872,20.165,45.036,45.037,45.036c24.874,0,45.035-20.164,45.035-45.036C93.036,23.127,72.875,2.964,48.001,2.964z M74.031,51.559c-0.918,0.912-2.175,1.473-3.565,1.473H53.032V70.47c0,2.778-2.254,5.032-5.031,5.032
		c-1.391,0-2.648-0.566-3.565-1.474c-0.905-0.91-1.471-2.167-1.471-3.559V53.031H25.53c-2.777,0-5.032-2.253-5.032-5.031 c0-1.386,0.567-2.647,1.472-3.558c0.912-0.914,2.169-1.474,3.56-1.474h17.434V25.53c0-2.778,2.253-5.032,5.037-5.032 c1.386,0,2.649,0.565,3.56,1.473c0.91,0.911,1.472,2.167,1.472,3.559v17.438h17.434c2.784,0,5.036,2.253,5.036,5.031 C75.502,49.386,74.936,50.646,74.031,51.559z" />
</svg>
