<svg version="1.1" id="Layer_1" xmlns="http://www.w3.org/2000/svg" xmlns:xlink="http://www.w3.org/1999/xlink" x="0px" y="0px" width="125px" height="125px" viewBox="0 0 96 96" enable-background="new 0 0 96 96" xml:space="preserve" fill="#2f2d3e">
	<path fill-rule="evenodd" clip-rule="evenodd" d="M48,2.96C23.13,2.96,2.96,23.13,2.96,48S23.13,93.04,48,93.04
				c24.88,0,45.04-20.17,45.04-45.04S72.88,2.96,48,2.96z M74.03,51.56c-0.92,0.91-2.17,1.471-3.561,1.471h-7.35H25.53
				c-2.78,0-5.03-2.25-5.03-5.03c0-1.39,0.57-2.65,1.47-3.56c0.91-0.91,2.17-1.47,3.56-1.47h44.94c2.78,0,5.03,2.25,5.03,5.03
				C75.5,49.39,74.94,50.65,74.03,51.56z" />
</svg>
