<svg version="1.1" id="Layer_1" xmlns="http://www.w3.org/2000/svg" xmlns:xlink="http://www.w3.org/1999/xlink" x="0px" y="0px" width="125px" height="125px" viewBox="0 0 96 96" enable-background="new 0 0 96 96" xml:space="preserve" fill="#2f2d3e">
	<path fill-rule="evenodd" clip-rule="evenodd" d="M48.001,2.964C23.128,2.964,2.964,23.127,2.964,48c0,24.872,20.165,45.036,45.037,45.036c24.874,0,45.035-20.164,45.035-45.036C93.036,23.127,72.875,2.964,48.001,2.964z M48,20c11.598,0,21,4.925,21,11s-9.402,11-21,11s-21-4.925-21-11S36.402,20,48,20z M27,35.5c4.5,3.5,12.5,5.5,21,5.5s16.5-2,21-5.5V64c0,4.418-9.402,8-21,8s-21-3.582-21-8V35.5z" />
</svg>
