<svg xmlns="http://www.w3.org/2000/svg" viewBox="0 0 226.48 226.95"><defs><style>.cls-1{fill:#231f20}</style></defs><g id="Layer_2" data-name="Layer 2"><g id="Layer_1-2" data-name="Layer 1"><path class="cls-1" d="M0 0v227h226.48V0zm29.72 59.77h17v2.77h-17zm0 25.82h17v2.76h-17zm0 25.47h17v2.76h-17zm65.89 54.05H29.72v-2.77h65.89zm0-25.82H29.72v-2.77h65.89zm0-25.47H72.67v-2.76h22.94zm-1.47-20.47a24.82 24.82 0 01-8.57 5.12 34.26 34.26 0 01-11.82 1.87h-6.6V127h-15V52.08h20.5A37.72 37.72 0 0185.07 54 25.1 25.1 0 0194 59.08a21.32 21.32 0 015.33 7.65 24.67 24.67 0 011.82 9.48 25.4 25.4 0 01-1.76 9.48 21.23 21.23 0 01-5.25 7.66zm55.7 69.65a17.64 17.64 0 01-5 6.66 20.32 20.32 0 01-7.8 3.91 38.41 38.41 0 01-10.23 1.27h-25.68v-74.9h23a35.25 35.25 0 019.84 1.32 23 23 0 017.92 4 18.11 18.11 0 015.22 6.56 20.76 20.76 0 011.87 9.09 15.25 15.25 0 01-2.47 8.87 25.41 25.41 0 01-5.34 5.78 34.91 34.91 0 013.85 3.25 25.5 25.5 0 013.36 4 20.2 20.2 0 012.36 4.85 18.35 18.35 0 01.88 5.84 23.72 23.72 0 01-1.78 9.5zm46.92 2.08H155a24.52 24.52 0 001-2.77h14.54v-23.02h-17.91a32.14 32.14 0 00-2.16-2.77h20v-22.7h-16.83a24.63 24.63 0 00-.87-2.76h17.71V88.35h-66.24c.08-.2.17-.4.25-.61.28-.7.53-1.43.76-2.15h65.23V62.54h-67a28.32 28.32 0 00-1.63-2.77h94.95zm-38.15-39.59a3.91 3.91 0 113.9 3.91 3.91 3.91 0 01-3.9-3.88zm0-25.58a3.91 3.91 0 113.9 3.91 3.91 3.91 0 01-3.9-3.88z"/><path class="cls-1" d="M180.59 113.82h-6.06v22.7h6.06zM180.59 139.29h-6.06v23.05h6.06zM136.65 152.61c0-3.6-1-6-2.86-7.33a13.86 13.86 0 00-7.81-1.92h-9.9v17.74H126q5.82 0 8.25-2.32a8.15 8.15 0 002.4-6.17zM180.59 88.35h-6.06v22.71h6.06zM82.71 68.28q-3.46-2.43-10.06-2.43h-5.5v21.6h5.5q7.14 0 10.35-2.45t3.19-8.38q-.02-5.92-3.48-8.34zM129.17 129.58a6.18 6.18 0 004.45-4.74 15.25 15.25 0 00.39-3.52 8.13 8.13 0 00-.44-2.54 6.78 6.78 0 00-1.57-2.48 8 8 0 00-3-1.87 14.1 14.1 0 00-4.89-.72h-8v16.53h8a16.3 16.3 0 005.06-.66zM180.59 62.54h-6.06v23.05h6.06z"/></g></g></svg>